<svg width="209" height="44" viewBox="0 0 209 44" fill="none" xmlns="http://www.w3.org/2000/svg">
<path d="M5.928 0.0240011V35.688H0V0.0240011H5.928Z" fill="#EBF2FA"/>
<path d="M27.6983 20.544C27.6983 19.776 27.5863 19.056 27.3623 18.384C27.1543 17.696 26.8343 17.096 26.4023 16.584C25.9703 16.072 25.4183 15.672 24.7463 15.384C24.0903 15.08 23.3222 14.928 22.4422 14.928C20.7302 14.928 19.3782 15.416 18.3862 16.392C17.4102 17.368 16.7863 18.752 16.5142 20.544H27.6983ZM16.3943 24.12C16.4903 25.384 16.7143 26.48 17.0662 27.408C17.4183 28.32 17.8822 29.08 18.4583 29.688C19.0342 30.28 19.7143 30.728 20.4983 31.032C21.2983 31.32 22.1783 31.464 23.1383 31.464C24.0983 31.464 24.9223 31.352 25.6103 31.128C26.3142 30.904 26.9222 30.656 27.4342 30.384C27.9623 30.112 28.4183 29.864 28.8023 29.64C29.2023 29.416 29.5863 29.304 29.9543 29.304C30.4503 29.304 30.8183 29.488 31.0583 29.856L32.7622 32.016C32.1062 32.784 31.3703 33.432 30.5543 33.96C29.7383 34.472 28.8822 34.888 27.9862 35.208C27.1062 35.512 26.2022 35.728 25.2743 35.856C24.3622 35.984 23.4742 36.048 22.6103 36.048C20.8983 36.048 19.3062 35.768 17.8342 35.208C16.3622 34.632 15.0823 33.792 13.9943 32.688C12.9063 31.568 12.0503 30.192 11.4263 28.56C10.8023 26.912 10.4902 25.008 10.4902 22.848C10.4902 21.168 10.7622 19.592 11.3062 18.12C11.8502 16.632 12.6263 15.344 13.6343 14.256C14.6583 13.152 15.8982 12.28 17.3542 11.64C18.8263 11 20.4823 10.68 22.3223 10.68C23.8743 10.68 25.3063 10.928 26.6183 11.424C27.9303 11.92 29.0583 12.648 30.0023 13.608C30.9462 14.552 31.6823 15.72 32.2103 17.112C32.7542 18.488 33.0262 20.064 33.0262 21.84C33.0262 22.736 32.9303 23.344 32.7383 23.664C32.5463 23.968 32.1783 24.12 31.6343 24.12H16.3943Z" fill="#EBF2FA"/>
<path d="M66.7868 16.272C66.6108 16.496 66.4348 16.672 66.2588 16.8C66.0988 16.928 65.8587 16.992 65.5387 16.992C65.2347 16.992 64.9387 16.904 64.6507 16.728C64.3628 16.536 64.0188 16.328 63.6188 16.104C63.2188 15.864 62.7387 15.656 62.1787 15.48C61.6347 15.288 60.9548 15.192 60.1388 15.192C59.0988 15.192 58.1868 15.384 57.4028 15.768C56.6188 16.136 55.9627 16.672 55.4347 17.376C54.9227 18.08 54.5387 18.936 54.2827 19.944C54.0267 20.936 53.8988 22.064 53.8988 23.328C53.8988 24.64 54.0348 25.808 54.3068 26.832C54.5948 27.856 55.0028 28.72 55.5308 29.424C56.0588 30.112 56.6988 30.64 57.4508 31.008C58.2028 31.36 59.0508 31.536 59.9948 31.536C60.9388 31.536 61.6987 31.424 62.2747 31.2C62.8667 30.96 63.3627 30.704 63.7627 30.432C64.1627 30.144 64.5068 29.888 64.7948 29.664C65.0988 29.424 65.4347 29.304 65.8027 29.304C66.2827 29.304 66.6428 29.488 66.8828 29.856L68.5868 32.016C67.9308 32.784 67.2188 33.432 66.4508 33.96C65.6828 34.472 64.8828 34.888 64.0508 35.208C63.2348 35.512 62.3868 35.728 61.5068 35.856C60.6428 35.984 59.7787 36.048 58.9147 36.048C57.3947 36.048 55.9628 35.768 54.6188 35.208C53.2748 34.632 52.0988 33.8 51.0908 32.712C50.0828 31.624 49.2828 30.296 48.6908 28.728C48.1148 27.144 47.8268 25.344 47.8268 23.328C47.8268 21.52 48.0827 19.848 48.5947 18.312C49.1227 16.76 49.8908 15.424 50.8988 14.304C51.9068 13.168 53.1547 12.28 54.6427 11.64C56.1308 11 57.8428 10.68 59.7788 10.68C61.6188 10.68 63.2268 10.976 64.6028 11.568C65.9948 12.16 67.2427 13.008 68.3467 14.112L66.7868 16.272Z" fill="#EBF2FA"/>
<path d="M77.895 15.336C78.663 13.864 79.575 12.712 80.631 11.88C81.687 11.032 82.935 10.608 84.375 10.608C85.511 10.608 86.423 10.856 87.111 11.352L86.727 15.792C86.647 16.08 86.527 16.288 86.367 16.416C86.223 16.528 86.023 16.584 85.767 16.584C85.527 16.584 85.167 16.544 84.687 16.464C84.223 16.384 83.767 16.344 83.319 16.344C82.663 16.344 82.079 16.44 81.567 16.632C81.055 16.824 80.591 17.104 80.175 17.472C79.775 17.824 79.415 18.256 79.095 18.768C78.791 19.28 78.503 19.864 78.231 20.52V35.688H72.303V11.064H75.783C76.391 11.064 76.815 11.176 77.055 11.4C77.295 11.608 77.455 11.992 77.535 12.552L77.895 15.336Z" fill="#EBF2FA"/>
<path d="M96.3532 11.064V35.688H90.4013V11.064H96.3532ZM97.1693 3.888C97.1693 4.4 97.0653 4.88 96.8573 5.328C96.6493 5.776 96.3692 6.168 96.0173 6.504C95.6813 6.84 95.2813 7.112 94.8173 7.32C94.3533 7.512 93.8572 7.608 93.3292 7.608C92.8172 7.608 92.3292 7.512 91.8652 7.32C91.4172 7.112 91.0252 6.84 90.6892 6.504C90.3532 6.168 90.0813 5.776 89.8733 5.328C89.6813 4.88 89.5853 4.4 89.5853 3.888C89.5853 3.36 89.6813 2.864 89.8733 2.4C90.0813 1.936 90.3532 1.536 90.6892 1.2C91.0252 0.864001 91.4172 0.600001 91.8652 0.408002C92.3292 0.200002 92.8172 0.0960016 93.3292 0.0960016C93.8572 0.0960016 94.3533 0.200002 94.8173 0.408002C95.2813 0.600001 95.6813 0.864001 96.0173 1.2C96.3692 1.536 96.6493 1.936 96.8573 2.4C97.0653 2.864 97.1693 3.36 97.1693 3.888Z" fill="#EBF2FA"/>
<path d="M127.237 35.688H121.309V15.504H109.885V28.848C109.885 29.616 110.069 30.216 110.437 30.648C110.821 31.08 111.341 31.296 111.997 31.296C112.365 31.296 112.669 31.256 112.909 31.176C113.165 31.08 113.381 30.984 113.557 30.888C113.749 30.792 113.917 30.704 114.061 30.624C114.205 30.528 114.349 30.48 114.493 30.48C114.669 30.48 114.813 30.528 114.925 30.624C115.037 30.704 115.157 30.832 115.285 31.008L117.061 33.888C116.197 34.608 115.205 35.152 114.085 35.52C112.965 35.888 111.805 36.072 110.605 36.072C108.461 36.072 106.813 35.472 105.661 34.272C104.525 33.056 103.957 31.384 103.957 29.256V15.504H101.437C101.117 15.504 100.845 15.4 100.621 15.192C100.397 14.984 100.285 14.672 100.285 14.256V11.904L104.245 11.232L105.493 4.536C105.573 4.216 105.725 3.968 105.949 3.792C106.173 3.616 106.461 3.528 106.813 3.528H109.885V11.28H127.237V35.688ZM128.269 3.792C128.269 4.304 128.165 4.792 127.957 5.256C127.749 5.704 127.469 6.096 127.117 6.432C126.781 6.768 126.373 7.04 125.893 7.248C125.429 7.44 124.933 7.536 124.405 7.536C123.893 7.536 123.413 7.44 122.965 7.248C122.517 7.04 122.125 6.768 121.789 6.432C121.453 6.096 121.181 5.704 120.973 5.256C120.781 4.792 120.685 4.304 120.685 3.792C120.685 3.264 120.781 2.776 120.973 2.328C121.181 1.864 121.453 1.464 121.789 1.128C122.125 0.776002 122.517 0.504002 122.965 0.312C123.413 0.104 123.893 0 124.405 0C124.933 0 125.429 0.104 125.893 0.312C126.373 0.504002 126.781 0.776002 127.117 1.128C127.469 1.464 127.749 1.864 127.957 2.328C128.165 2.776 128.269 3.264 128.269 3.792Z" fill="#EBF2FA"/>
<path d="M148.743 17.352C148.087 16.536 147.359 15.96 146.559 15.624C145.759 15.288 144.903 15.12 143.991 15.12C143.095 15.12 142.287 15.288 141.567 15.624C140.847 15.96 140.231 16.472 139.719 17.16C139.207 17.832 138.815 18.696 138.543 19.752C138.271 20.792 138.135 22.024 138.135 23.448C138.135 24.888 138.247 26.112 138.471 27.12C138.711 28.112 139.047 28.928 139.479 29.568C139.911 30.192 140.439 30.648 141.063 30.936C141.687 31.208 142.383 31.344 143.151 31.344C144.383 31.344 145.431 31.088 146.295 30.576C147.159 30.064 147.975 29.336 148.743 28.392V17.352ZM154.671 11.064V43.728H148.743V32.568C147.767 33.608 146.663 34.448 145.431 35.088C144.199 35.728 142.767 36.048 141.135 36.048C139.791 36.048 138.559 35.768 137.439 35.208C136.319 34.648 135.351 33.84 134.535 32.784C133.735 31.712 133.111 30.392 132.663 28.824C132.231 27.256 132.015 25.464 132.015 23.448C132.015 21.624 132.263 19.928 132.759 18.36C133.255 16.792 133.967 15.432 134.895 14.28C135.823 13.128 136.935 12.232 138.231 11.592C139.527 10.936 140.983 10.608 142.599 10.608C144.135 10.608 145.423 10.872 146.463 11.4C147.503 11.928 148.431 12.64 149.247 13.536L149.559 12.144C149.767 11.424 150.263 11.064 151.047 11.064H154.671Z" fill="#EBF2FA"/>
<path d="M181.738 11.064V35.688H178.114C177.33 35.688 176.834 35.328 176.626 34.608L176.218 32.64C175.21 33.664 174.098 34.496 172.882 35.136C171.666 35.76 170.234 36.072 168.586 36.072C167.242 36.072 166.05 35.848 165.01 35.4C163.986 34.936 163.122 34.288 162.418 33.456C161.714 32.624 161.178 31.64 160.81 30.504C160.458 29.352 160.282 28.088 160.282 26.712V11.064H166.21V26.712C166.21 28.216 166.554 29.384 167.242 30.216C167.946 31.032 168.994 31.44 170.386 31.44C171.41 31.44 172.37 31.216 173.266 30.768C174.162 30.304 175.01 29.672 175.81 28.872V11.064H181.738Z" fill="#EBF2FA"/>
<path d="M203.48 20.544C203.48 19.776 203.367 19.056 203.143 18.384C202.935 17.696 202.616 17.096 202.184 16.584C201.752 16.072 201.199 15.672 200.527 15.384C199.871 15.08 199.103 14.928 198.223 14.928C196.511 14.928 195.159 15.416 194.167 16.392C193.191 17.368 192.568 18.752 192.296 20.544H203.48ZM192.176 24.12C192.272 25.384 192.496 26.48 192.848 27.408C193.2 28.32 193.664 29.08 194.24 29.688C194.816 30.28 195.495 30.728 196.279 31.032C197.079 31.32 197.959 31.464 198.919 31.464C199.879 31.464 200.703 31.352 201.391 31.128C202.095 30.904 202.703 30.656 203.215 30.384C203.744 30.112 204.199 29.864 204.583 29.64C204.983 29.416 205.368 29.304 205.736 29.304C206.232 29.304 206.6 29.488 206.84 29.856L208.544 32.016C207.888 32.784 207.151 33.432 206.335 33.96C205.519 34.472 204.664 34.888 203.768 35.208C202.888 35.512 201.983 35.728 201.055 35.856C200.143 35.984 199.255 36.048 198.391 36.048C196.679 36.048 195.087 35.768 193.615 35.208C192.143 34.632 190.863 33.792 189.775 32.688C188.687 31.568 187.832 30.192 187.208 28.56C186.584 26.912 186.271 25.008 186.271 22.848C186.271 21.168 186.543 19.592 187.087 18.12C187.631 16.632 188.407 15.344 189.415 14.256C190.439 13.152 191.679 12.28 193.135 11.64C194.607 11 196.264 10.68 198.104 10.68C199.656 10.68 201.088 10.928 202.4 11.424C203.712 11.92 204.84 12.648 205.784 13.608C206.728 14.552 207.464 15.72 207.992 17.112C208.535 18.488 208.807 20.064 208.807 21.84C208.807 22.736 208.712 23.344 208.52 23.664C208.328 23.968 207.959 24.12 207.415 24.12H192.176Z" fill="#EBF2FA"/>
<path d="M37.064 32.424C37.064 31.928 37.152 31.456 37.328 31.008C37.52 30.56 37.776 30.176 38.096 29.856C38.416 29.536 38.8 29.28 39.248 29.088C39.696 28.896 40.176 28.8 40.688 28.8C41.2 28.8 41.672 28.896 42.104 29.088C42.552 29.28 42.936 29.536 43.256 29.856C43.592 30.176 43.856 30.56 44.048 31.008C44.24 31.456 44.336 31.928 44.336 32.424C44.336 32.936 44.24 33.416 44.048 33.864C43.856 34.296 43.592 34.672 43.256 34.992C42.936 35.312 42.552 35.56 42.104 35.736C41.672 35.928 41.2 36.024 40.688 36.024C40.176 36.024 39.696 35.928 39.248 35.736C38.8 35.56 38.416 35.312 38.096 34.992C37.776 34.672 37.52 34.296 37.328 33.864C37.152 33.416 37.064 32.936 37.064 32.424Z" fill="#E5B769"/>
</svg>
